<mxfile host="app.diagrams.net" agent="Mozilla/5.0 (Windows NT 10.0; Win64; x64) AppleWebKit/537.36 (KHTML, like Gecko) Chrome/131.0.0.0 Safari/537.36" version="24.8.8">
  <diagram name="Side-1" id="SiGaIWEl-Me4CfpSDpTx">
    <mxGraphModel dx="2261" dy="780" grid="1" gridSize="10" guides="1" tooltips="1" connect="1" arrows="1" fold="1" page="1" pageScale="1" pageWidth="827" pageHeight="1169" math="0" shadow="0">
      <root>
        <mxCell id="0" />
        <mxCell id="1" parent="0" />
        <mxCell id="a6dS4T67nJoaVm6B6dqw-3" value="" style="verticalLabelPosition=bottom;shadow=0;dashed=0;align=center;html=1;verticalAlign=top;shape=mxgraph.electrical.abstract.operational_amp_1;" vertex="1" parent="1">
          <mxGeometry x="120" y="310" width="98" height="90" as="geometry" />
        </mxCell>
        <mxCell id="a6dS4T67nJoaVm6B6dqw-11" style="edgeStyle=orthogonalEdgeStyle;rounded=0;orthogonalLoop=1;jettySize=auto;html=1;endArrow=none;endFill=0;" edge="1" parent="1" source="a6dS4T67nJoaVm6B6dqw-4" target="a6dS4T67nJoaVm6B6dqw-10">
          <mxGeometry relative="1" as="geometry" />
        </mxCell>
        <mxCell id="a6dS4T67nJoaVm6B6dqw-4" value="" style="verticalLabelPosition=bottom;shadow=0;dashed=0;align=center;html=1;verticalAlign=top;shape=mxgraph.electrical.abstract.amplifier;" vertex="1" parent="1">
          <mxGeometry x="324" y="305" width="90" height="100" as="geometry" />
        </mxCell>
        <mxCell id="a6dS4T67nJoaVm6B6dqw-5" style="edgeStyle=orthogonalEdgeStyle;rounded=0;orthogonalLoop=1;jettySize=auto;html=1;entryX=0;entryY=0.5;entryDx=0;entryDy=0;entryPerimeter=0;endArrow=none;endFill=0;" edge="1" parent="1" source="a6dS4T67nJoaVm6B6dqw-3" target="a6dS4T67nJoaVm6B6dqw-4">
          <mxGeometry relative="1" as="geometry" />
        </mxCell>
        <mxCell id="a6dS4T67nJoaVm6B6dqw-18" style="edgeStyle=orthogonalEdgeStyle;rounded=0;orthogonalLoop=1;jettySize=auto;html=1;exitX=1;exitY=0.5;exitDx=0;exitDy=0;exitPerimeter=0;endArrow=none;endFill=0;" edge="1" parent="1" source="a6dS4T67nJoaVm6B6dqw-10">
          <mxGeometry relative="1" as="geometry">
            <mxPoint x="640" y="390" as="targetPoint" />
          </mxGeometry>
        </mxCell>
        <mxCell id="a6dS4T67nJoaVm6B6dqw-26" style="edgeStyle=orthogonalEdgeStyle;rounded=0;orthogonalLoop=1;jettySize=auto;html=1;endArrow=none;endFill=0;" edge="1" parent="1" source="a6dS4T67nJoaVm6B6dqw-10">
          <mxGeometry relative="1" as="geometry">
            <mxPoint x="640" y="310.00000000000006" as="targetPoint" />
          </mxGeometry>
        </mxCell>
        <mxCell id="a6dS4T67nJoaVm6B6dqw-10" value="" style="pointerEvents=1;verticalLabelPosition=bottom;shadow=0;dashed=0;align=center;html=1;verticalAlign=top;shape=mxgraph.electrical.resistors.resistor_2;" vertex="1" parent="1">
          <mxGeometry x="470" y="345" width="100" height="20" as="geometry" />
        </mxCell>
        <mxCell id="a6dS4T67nJoaVm6B6dqw-13" style="edgeStyle=orthogonalEdgeStyle;rounded=0;orthogonalLoop=1;jettySize=auto;html=1;exitX=0;exitY=0.165;exitDx=0;exitDy=0;exitPerimeter=0;entryX=0;entryY=0.5;entryDx=0;entryDy=0;entryPerimeter=0;endArrow=none;endFill=0;" edge="1" parent="1" source="a6dS4T67nJoaVm6B6dqw-3" target="a6dS4T67nJoaVm6B6dqw-10">
          <mxGeometry relative="1" as="geometry">
            <Array as="points">
              <mxPoint x="100" y="325" />
              <mxPoint x="100" y="250" />
              <mxPoint x="440" y="250" />
              <mxPoint x="440" y="355" />
            </Array>
          </mxGeometry>
        </mxCell>
        <mxCell id="a6dS4T67nJoaVm6B6dqw-14" value="" style="pointerEvents=1;verticalLabelPosition=bottom;shadow=0;dashed=0;align=center;html=1;verticalAlign=top;shape=mxgraph.electrical.resistors.resistor_2;" vertex="1" parent="1">
          <mxGeometry x="710" y="380" width="100" height="20" as="geometry" />
        </mxCell>
        <mxCell id="a6dS4T67nJoaVm6B6dqw-29" style="edgeStyle=orthogonalEdgeStyle;rounded=0;orthogonalLoop=1;jettySize=auto;html=1;entryX=0;entryY=0.5;entryDx=0;entryDy=0;entryPerimeter=0;endArrow=none;endFill=0;" edge="1" parent="1" source="a6dS4T67nJoaVm6B6dqw-15" target="a6dS4T67nJoaVm6B6dqw-28">
          <mxGeometry relative="1" as="geometry">
            <mxPoint x="960" y="420" as="targetPoint" />
            <Array as="points">
              <mxPoint x="830" y="310" />
              <mxPoint x="830" y="350" />
              <mxPoint x="960" y="350" />
            </Array>
          </mxGeometry>
        </mxCell>
        <mxCell id="a6dS4T67nJoaVm6B6dqw-15" value="" style="pointerEvents=1;verticalLabelPosition=bottom;shadow=0;dashed=0;align=center;html=1;verticalAlign=top;shape=mxgraph.electrical.resistors.resistor_2;" vertex="1" parent="1">
          <mxGeometry x="710" y="300" width="100" height="20" as="geometry" />
        </mxCell>
        <mxCell id="a6dS4T67nJoaVm6B6dqw-16" value="" style="endArrow=none;dashed=1;html=1;dashPattern=1 3;strokeWidth=2;rounded=0;" edge="1" parent="1">
          <mxGeometry width="50" height="50" relative="1" as="geometry">
            <mxPoint x="759.76" y="375" as="sourcePoint" />
            <mxPoint x="759.76" y="325" as="targetPoint" />
          </mxGeometry>
        </mxCell>
        <mxCell id="a6dS4T67nJoaVm6B6dqw-17" value="" style="endArrow=none;dashed=1;html=1;dashPattern=1 3;strokeWidth=2;rounded=0;" edge="1" parent="1">
          <mxGeometry width="50" height="50" relative="1" as="geometry">
            <mxPoint x="680" y="370" as="sourcePoint" />
            <mxPoint x="680" y="320" as="targetPoint" />
          </mxGeometry>
        </mxCell>
        <mxCell id="a6dS4T67nJoaVm6B6dqw-20" value="" style="endArrow=none;html=1;rounded=0;" edge="1" parent="1">
          <mxGeometry width="50" height="50" relative="1" as="geometry">
            <mxPoint x="680" y="310" as="sourcePoint" />
            <mxPoint x="700" y="290" as="targetPoint" />
          </mxGeometry>
        </mxCell>
        <mxCell id="a6dS4T67nJoaVm6B6dqw-21" value="" style="endArrow=none;html=1;rounded=0;" edge="1" parent="1">
          <mxGeometry width="50" height="50" relative="1" as="geometry">
            <mxPoint x="680" y="390" as="sourcePoint" />
            <mxPoint x="700" y="370" as="targetPoint" />
          </mxGeometry>
        </mxCell>
        <mxCell id="a6dS4T67nJoaVm6B6dqw-22" value="" style="endArrow=none;html=1;rounded=0;" edge="1" parent="1">
          <mxGeometry width="50" height="50" relative="1" as="geometry">
            <mxPoint x="640" y="390" as="sourcePoint" />
            <mxPoint x="680" y="390" as="targetPoint" />
          </mxGeometry>
        </mxCell>
        <mxCell id="a6dS4T67nJoaVm6B6dqw-24" value="" style="endArrow=none;html=1;rounded=0;" edge="1" parent="1">
          <mxGeometry width="50" height="50" relative="1" as="geometry">
            <mxPoint x="640" y="310" as="sourcePoint" />
            <mxPoint x="680" y="310" as="targetPoint" />
          </mxGeometry>
        </mxCell>
        <mxCell id="a6dS4T67nJoaVm6B6dqw-27" style="edgeStyle=orthogonalEdgeStyle;rounded=0;orthogonalLoop=1;jettySize=auto;html=1;exitX=1;exitY=0.5;exitDx=0;exitDy=0;exitPerimeter=0;entryX=1;entryY=0.5;entryDx=0;entryDy=0;entryPerimeter=0;endArrow=none;endFill=0;" edge="1" parent="1" source="a6dS4T67nJoaVm6B6dqw-15" target="a6dS4T67nJoaVm6B6dqw-14">
          <mxGeometry relative="1" as="geometry" />
        </mxCell>
        <mxCell id="a6dS4T67nJoaVm6B6dqw-28" value="" style="pointerEvents=1;verticalLabelPosition=bottom;shadow=0;dashed=0;align=center;html=1;verticalAlign=top;shape=mxgraph.electrical.resistors.resistor_1;direction=south;" vertex="1" parent="1">
          <mxGeometry x="950" y="490" width="20" height="100" as="geometry" />
        </mxCell>
        <mxCell id="a6dS4T67nJoaVm6B6dqw-30" value="" style="rounded=0;whiteSpace=wrap;html=1;fillColor=none;" vertex="1" parent="1">
          <mxGeometry x="600" y="250" width="280" height="180" as="geometry" />
        </mxCell>
        <mxCell id="a6dS4T67nJoaVm6B6dqw-31" value="&lt;font style=&quot;font-size: 16px;&quot;&gt;Range Resistors&lt;/font&gt;" style="text;html=1;align=center;verticalAlign=middle;whiteSpace=wrap;rounded=0;" vertex="1" parent="1">
          <mxGeometry x="600" y="250" width="140" height="30" as="geometry" />
        </mxCell>
        <mxCell id="a6dS4T67nJoaVm6B6dqw-33" value="&lt;font style=&quot;font-size: 16px;&quot;&gt;AB Stage&lt;/font&gt;" style="text;html=1;align=center;verticalAlign=middle;whiteSpace=wrap;rounded=0;" vertex="1" parent="1">
          <mxGeometry x="324" y="405" width="120" height="30" as="geometry" />
        </mxCell>
        <mxCell id="a6dS4T67nJoaVm6B6dqw-34" value="&lt;font style=&quot;font-size: 16px;&quot;&gt;Op-amp&lt;/font&gt;" style="text;html=1;align=center;verticalAlign=middle;whiteSpace=wrap;rounded=0;" vertex="1" parent="1">
          <mxGeometry x="130" y="400" width="120" height="30" as="geometry" />
        </mxCell>
        <mxCell id="a6dS4T67nJoaVm6B6dqw-38" value="&lt;font style=&quot;font-size: 16px;&quot;&gt;DUT&lt;/font&gt;" style="text;html=1;align=center;verticalAlign=middle;whiteSpace=wrap;rounded=0;" vertex="1" parent="1">
          <mxGeometry x="982.5" y="525" width="60" height="30" as="geometry" />
        </mxCell>
        <mxCell id="a6dS4T67nJoaVm6B6dqw-39" value="&lt;span style=&quot;font-size: 16px;&quot;&gt;R&lt;sub&gt;o&lt;/sub&gt;&lt;/span&gt;" style="text;html=1;align=center;verticalAlign=middle;whiteSpace=wrap;rounded=0;" vertex="1" parent="1">
          <mxGeometry x="490" y="365" width="60" height="30" as="geometry" />
        </mxCell>
        <mxCell id="a6dS4T67nJoaVm6B6dqw-40" value="" style="verticalLabelPosition=bottom;shadow=0;dashed=0;align=center;html=1;verticalAlign=top;shape=mxgraph.electrical.abstract.operational_amp_1;" vertex="1" parent="1">
          <mxGeometry x="120" y="750" width="98" height="90" as="geometry" />
        </mxCell>
        <mxCell id="a6dS4T67nJoaVm6B6dqw-41" style="edgeStyle=orthogonalEdgeStyle;rounded=0;orthogonalLoop=1;jettySize=auto;html=1;endArrow=none;endFill=0;" edge="1" parent="1" source="a6dS4T67nJoaVm6B6dqw-42" target="a6dS4T67nJoaVm6B6dqw-44">
          <mxGeometry relative="1" as="geometry" />
        </mxCell>
        <mxCell id="a6dS4T67nJoaVm6B6dqw-42" value="" style="verticalLabelPosition=bottom;shadow=0;dashed=0;align=center;html=1;verticalAlign=top;shape=mxgraph.electrical.abstract.amplifier;" vertex="1" parent="1">
          <mxGeometry x="324" y="745" width="90" height="100" as="geometry" />
        </mxCell>
        <mxCell id="a6dS4T67nJoaVm6B6dqw-43" style="edgeStyle=orthogonalEdgeStyle;rounded=0;orthogonalLoop=1;jettySize=auto;html=1;entryX=0;entryY=0.5;entryDx=0;entryDy=0;entryPerimeter=0;endArrow=none;endFill=0;" edge="1" parent="1" source="a6dS4T67nJoaVm6B6dqw-40" target="a6dS4T67nJoaVm6B6dqw-42">
          <mxGeometry relative="1" as="geometry" />
        </mxCell>
        <mxCell id="a6dS4T67nJoaVm6B6dqw-44" value="" style="pointerEvents=1;verticalLabelPosition=bottom;shadow=0;dashed=0;align=center;html=1;verticalAlign=top;shape=mxgraph.electrical.resistors.resistor_2;" vertex="1" parent="1">
          <mxGeometry x="470" y="785" width="100" height="20" as="geometry" />
        </mxCell>
        <mxCell id="a6dS4T67nJoaVm6B6dqw-45" style="edgeStyle=orthogonalEdgeStyle;rounded=0;orthogonalLoop=1;jettySize=auto;html=1;exitX=0;exitY=0.165;exitDx=0;exitDy=0;exitPerimeter=0;entryX=0;entryY=0.5;entryDx=0;entryDy=0;entryPerimeter=0;endArrow=none;endFill=0;" edge="1" parent="1" source="a6dS4T67nJoaVm6B6dqw-40" target="a6dS4T67nJoaVm6B6dqw-44">
          <mxGeometry relative="1" as="geometry">
            <Array as="points">
              <mxPoint x="100" y="765" />
              <mxPoint x="100" y="690" />
              <mxPoint x="440" y="690" />
              <mxPoint x="440" y="795" />
            </Array>
          </mxGeometry>
        </mxCell>
        <mxCell id="a6dS4T67nJoaVm6B6dqw-46" value="&lt;font style=&quot;font-size: 16px;&quot;&gt;AB Stage&lt;/font&gt;" style="text;html=1;align=center;verticalAlign=middle;whiteSpace=wrap;rounded=0;" vertex="1" parent="1">
          <mxGeometry x="324" y="845" width="120" height="30" as="geometry" />
        </mxCell>
        <mxCell id="a6dS4T67nJoaVm6B6dqw-47" value="&lt;font style=&quot;font-size: 16px;&quot;&gt;Op-amp&lt;/font&gt;" style="text;html=1;align=center;verticalAlign=middle;whiteSpace=wrap;rounded=0;" vertex="1" parent="1">
          <mxGeometry x="130" y="840" width="120" height="30" as="geometry" />
        </mxCell>
        <mxCell id="a6dS4T67nJoaVm6B6dqw-48" value="&lt;span style=&quot;font-size: 16px;&quot;&gt;R&lt;sub&gt;o&lt;/sub&gt;&lt;/span&gt;" style="text;html=1;align=center;verticalAlign=middle;whiteSpace=wrap;rounded=0;" vertex="1" parent="1">
          <mxGeometry x="490" y="805" width="60" height="30" as="geometry" />
        </mxCell>
        <mxCell id="a6dS4T67nJoaVm6B6dqw-49" style="edgeStyle=orthogonalEdgeStyle;rounded=0;orthogonalLoop=1;jettySize=auto;html=1;entryX=1;entryY=0.5;entryDx=0;entryDy=0;entryPerimeter=0;endArrow=none;endFill=0;exitX=1;exitY=0.5;exitDx=0;exitDy=0;exitPerimeter=0;" edge="1" parent="1" source="a6dS4T67nJoaVm6B6dqw-28" target="a6dS4T67nJoaVm6B6dqw-44">
          <mxGeometry relative="1" as="geometry">
            <mxPoint x="960" y="700" as="sourcePoint" />
            <Array as="points">
              <mxPoint x="960" y="795" />
            </Array>
          </mxGeometry>
        </mxCell>
        <mxCell id="a6dS4T67nJoaVm6B6dqw-50" value="" style="pointerEvents=1;verticalLabelPosition=bottom;shadow=0;dashed=0;align=center;html=1;verticalAlign=top;shape=mxgraph.electrical.signal_sources.source;aspect=fixed;points=[[0.5,0,0],[1,0.5,0],[0.5,1,0],[0,0.5,0]];elSignalType=ac;" vertex="1" parent="1">
          <mxGeometry x="-30" y="550" width="60" height="60" as="geometry" />
        </mxCell>
        <mxCell id="a6dS4T67nJoaVm6B6dqw-51" style="edgeStyle=orthogonalEdgeStyle;rounded=0;orthogonalLoop=1;jettySize=auto;html=1;entryX=0;entryY=0.835;entryDx=0;entryDy=0;entryPerimeter=0;endArrow=none;endFill=0;exitX=0.5;exitY=0;exitDx=0;exitDy=0;exitPerimeter=0;" edge="1" parent="1" source="a6dS4T67nJoaVm6B6dqw-50" target="a6dS4T67nJoaVm6B6dqw-3">
          <mxGeometry relative="1" as="geometry">
            <mxPoint x="2.2737367544323206e-13" y="480" as="sourcePoint" />
            <Array as="points">
              <mxPoint y="385" />
            </Array>
          </mxGeometry>
        </mxCell>
        <mxCell id="a6dS4T67nJoaVm6B6dqw-52" style="edgeStyle=orthogonalEdgeStyle;rounded=0;orthogonalLoop=1;jettySize=auto;html=1;entryX=0;entryY=0.835;entryDx=0;entryDy=0;entryPerimeter=0;endArrow=none;endFill=0;exitX=0.5;exitY=1;exitDx=0;exitDy=0;exitPerimeter=0;" edge="1" parent="1" source="a6dS4T67nJoaVm6B6dqw-50" target="a6dS4T67nJoaVm6B6dqw-40">
          <mxGeometry relative="1" as="geometry">
            <mxPoint x="2.2737367544323206e-13" y="720" as="sourcePoint" />
            <Array as="points">
              <mxPoint y="825" />
            </Array>
          </mxGeometry>
        </mxCell>
        <mxCell id="a6dS4T67nJoaVm6B6dqw-53" value="" style="rounded=1;whiteSpace=wrap;html=1;fillColor=none;" vertex="1" parent="1">
          <mxGeometry x="60" y="160" width="520" height="320" as="geometry" />
        </mxCell>
        <mxCell id="a6dS4T67nJoaVm6B6dqw-54" value="&lt;font style=&quot;font-size: 22px;&quot;&gt;Positive Power Amp&lt;/font&gt;" style="text;html=1;align=center;verticalAlign=middle;whiteSpace=wrap;rounded=0;" vertex="1" parent="1">
          <mxGeometry x="110" y="180" width="230" height="30" as="geometry" />
        </mxCell>
        <mxCell id="a6dS4T67nJoaVm6B6dqw-55" value="" style="rounded=1;whiteSpace=wrap;html=1;fillColor=none;" vertex="1" parent="1">
          <mxGeometry x="60" y="600" width="520" height="320" as="geometry" />
        </mxCell>
        <mxCell id="a6dS4T67nJoaVm6B6dqw-56" value="&lt;font style=&quot;font-size: 22px;&quot;&gt;Negative Power Amp&lt;/font&gt;" style="text;html=1;align=center;verticalAlign=middle;whiteSpace=wrap;rounded=0;" vertex="1" parent="1">
          <mxGeometry x="120" y="640" width="230" height="30" as="geometry" />
        </mxCell>
      </root>
    </mxGraphModel>
  </diagram>
</mxfile>
